<?xml version="1.0" encoding="utf-8"?>
<!-- Generator: Adobe Illustrator 24.2.0, SVG Export Plug-In . SVG Version: 6.00 Build 0)  -->
<svg version="1.1" id="Слой_1" xmlns="http://www.w3.org/2000/svg" xmlns:xlink="http://www.w3.org/1999/xlink" x="0px" y="0px"
	 viewBox="0 0 26 26" style="enable-background:new 0 0 26 26;" xml:space="preserve">
<style type="text/css">
	.st0{fill:#FFFFFF;}
</style>
<g>
	<g>
		<path class="st0" d="M12.65,0.07c-5.51,0-10,4.44-10,9.9c0,1.85,0.51,3.84,1.52,5.91c1.84,3.77,5.2,7.51,8.48,10.19
			c3.27-2.67,6.64-6.41,8.48-10.19c1.01-2.07,1.52-4.05,1.52-5.91C22.65,4.52,18.16,0.07,12.65,0.07z M12.65,24.08
			c-1.87-1.65-8.46-7.92-8.46-14.11c0-4.62,3.8-8.38,8.46-8.38s8.46,3.76,8.46,8.38C21.11,15.08,16.5,20.68,12.65,24.08z
			 M12.65,3.12c-3.82,0-6.92,3.07-6.92,6.85c0,3.78,3.11,6.85,6.92,6.85s6.92-3.08,6.92-6.85C19.57,6.2,16.47,3.12,12.65,3.12z
			 M13.42,7.82c0.65,0.23,1.17,0.74,1.41,1.39h-1.41V7.82z M13.42,15.25c-0.25,0.04-0.51,0.05-0.77,0.05
			c-2.97,0-5.38-2.39-5.38-5.33c0-0.42,0.35-0.76,0.77-0.76c0.42,0,0.77,0.34,0.77,0.76c0,2.1,1.73,3.81,3.85,3.81
			c0.42,0,0.77,0.34,0.77,0.76V15.25z M14.96,14.79v-0.25c0-1.26-1.04-2.28-2.31-2.28c-1.27,0-2.31-1.03-2.31-2.28
			S9.31,7.69,8.03,7.69c-0.09,0-0.17,0.01-0.26,0.01c0.76-1.59,2.28-2.75,4.1-3.01v6.04h6.1C17.72,12.53,16.55,14.04,14.96,14.79z
			 M16.42,9.21c-0.31-1.49-1.49-2.67-3-2.97V4.7c2.35,0.33,4.22,2.18,4.56,4.52H16.42z"/>
	</g>
</g>
</svg>
