<?xml version="1.0" encoding="utf-8"?>
<!-- Generator: Adobe Illustrator 24.2.0, SVG Export Plug-In . SVG Version: 6.00 Build 0)  -->
<svg version="1.1" id="Слой_1" xmlns="http://www.w3.org/2000/svg" xmlns:xlink="http://www.w3.org/1999/xlink" x="0px" y="0px"
	 viewBox="0 0 26 26" style="enable-background:new 0 0 26 26;" xml:space="preserve">
<style type="text/css">
	.st0{fill:#FFFFFF;}
</style>
<path class="st0" d="M19.73,7.56v-4l-2.36-2.29l-1.9,1.84h-0.76l-1.57-3.05H8.71v1.81L5.56,3.41v4.15
	c-2.89,1.19-4.56,2.74-4.91,2.99l12,15.52l12-15.52C24.27,10.29,22.61,8.75,19.73,7.56L19.73,7.56z M8.71,3.59v1.05h1.57
	c0-1.12,0-1.93,0-3.05h1.88l1.57,3.05h2.39l1.25-1.21l0.79,0.76V7c-1.78-0.55-3.63-0.83-5.51-0.83c-1.88,0-3.73,0.28-5.51,0.83V4.35
	L8.71,3.59z M15.87,19.36c-0.93-0.65-2.06-1.01-3.22-1.01c-1.16,0-2.29,0.36-3.22,1.01l-1.89-2.44c1.48-1.05,3.26-1.62,5.11-1.62
	s3.63,0.57,5.11,1.62L15.87,19.36z M12.65,13.78c-2.19,0-4.3,0.68-6.05,1.92l-1.88-2.44c2.29-1.64,5.08-2.53,7.94-2.53
	c2.86,0,5.65,0.89,7.94,2.53L18.7,15.7C16.95,14.46,14.84,13.78,12.65,13.78L12.65,13.78z M10.37,20.58
	c0.66-0.45,1.46-0.71,2.28-0.71c0.82,0,1.62,0.25,2.28,0.71l-2.28,2.95L10.37,20.58z M21.53,12.05c-2.56-1.83-5.68-2.83-8.88-2.83
	c-3.2,0-6.32,1-8.88,2.83l-0.94-1.22c2.83-2.03,6.29-3.14,9.82-3.14s6.99,1.11,9.82,3.14L21.53,12.05z"/>
</svg>
