<?xml version="1.0" encoding="utf-8"?>
<!-- Generator: Adobe Illustrator 24.2.0, SVG Export Plug-In . SVG Version: 6.00 Build 0)  -->
<svg version="1.1" id="Слой_1" xmlns="http://www.w3.org/2000/svg" xmlns:xlink="http://www.w3.org/1999/xlink" x="0px" y="0px"
	 viewBox="0 0 26 26" style="enable-background:new 0 0 26 26;" xml:space="preserve">
<style type="text/css">
	.st0{fill:#FFFFFF;}
</style>
<path class="st0" d="M22.14,1.88c-0.91,0-1.69,0.53-2.06,1.29c-0.37,0.14-0.71,0.22-0.99,0.22c-0.98,0-2.14-0.93-2.51-1.29
	l-0.54-0.53L15.51,2.1C15.14,2.46,13.98,3.4,13,3.4c-0.98,0-2.14-0.93-2.51-1.29L9.95,1.57L9.42,2.1C9.05,2.46,7.89,3.4,6.91,3.4
	c-0.3,0-0.63-0.09-1-0.25C5.53,2.4,4.75,1.88,3.86,1.88H0v22.69h26V1.88H22.14z M22.14,3.4h2.34v1.51h-3.13
	c0.02-0.25,0.03-0.5,0.03-0.76C21.38,3.74,21.72,3.4,22.14,3.4z M13,12.47c3.83,0,7.07-2.56,8.06-6.05h3.41v7.56H1.52V6.42h3.41
	C5.93,9.91,9.17,12.47,13,12.47L13,12.47z M9.95,3.65c0.65,0.52,1.81,1.26,3.05,1.26c1.24,0,2.39-0.74,3.05-1.26
	c1.1,0.87,2.38,1.47,3.77,1.18c-0.34,3.44-3.27,6.13-6.82,6.13c-3.55,0-6.48-2.69-6.82-6.13C7.55,5.13,8.86,4.51,9.95,3.65
	L9.95,3.65z M3.86,3.4c0.42,0,0.76,0.34,0.76,0.76c0,0.25,0.01,0.51,0.04,0.76H1.52V3.4H3.86z M1.52,23.06v-4.54h3.1v-1.51h-3.1
	V15.5h22.95v1.51h-3.1v1.51h3.1v4.54H1.52z"/>
</svg>
