<?xml version="1.0" encoding="utf-8"?>
<!-- Generator: Adobe Illustrator 24.2.0, SVG Export Plug-In . SVG Version: 6.00 Build 0)  -->
<svg version="1.1" id="Capa_1" xmlns="http://www.w3.org/2000/svg" xmlns:xlink="http://www.w3.org/1999/xlink" x="0px" y="0px"
	 viewBox="0 0 26 26.1" style="enable-background:new 0 0 26 26.1;" xml:space="preserve">
<style type="text/css">
	.st0{fill:#FFFFFF;}
</style>
<g>
	<g>
		<path class="st0" d="M9,0.1V9H8.3v1.6H9v7l-3,4.4V10.5h0.7V9H0.3v1.6H1v12.9c0,1.3,1,2.4,2.3,2.5l0,0H26V0.1H9z M4.5,23.5
			c0,0.5-0.4,0.9-0.9,0.9c-0.5,0-0.9-0.4-0.9-0.9v-7.6h1.9V23.5z M4.5,14.3H2.6v-3.8h1.9V14.3z M10.6,18v-7.5h1.6V18l1.5,2.2H9.1
			L10.6,18z M6.2,24.4L8,21.8h6.7l1.8,2.6H6.2z M24.4,24.4h-6l-4.6-6.9v-7h0.7V9h-3.9V1.7h13.9V24.4z M16.4,3.3h-4.3v4.3h4.3V3.3z
			 M14.8,6h-1.1V4.8h1.1V6z M22.2,10.5h-5.4v1.6h5.4V10.5z M22.2,13.8h-5.4v1.6h5.4V13.8z M22.2,17.1h-5.4v1.6h5.4V17.1z"/>
	</g>
</g>
</svg>
