<?xml version="1.0" encoding="utf-8"?>
<!-- Generator: Adobe Illustrator 24.2.0, SVG Export Plug-In . SVG Version: 6.00 Build 0)  -->
<svg version="1.1" id="Capa_1" xmlns="http://www.w3.org/2000/svg" xmlns:xlink="http://www.w3.org/1999/xlink" x="0px" y="0px"
	 viewBox="0 0 26 26.1" style="enable-background:new 0 0 26 26.1;" xml:space="preserve">
<style type="text/css">
	.st0{fill:#FFFFFF;}
</style>
<path class="st0" d="M25.2,6.8c-0.7,0-1-0.2-1.5-0.4c-0.5-0.3-1.1-0.6-2.2-0.6c-1.1,0-1.7,0.3-2.2,0.6c-0.4,0.2-0.7,0.4-1.5,0.4
	c-0.7,0-1-0.2-1.5-0.4c-0.5-0.3-1.1-0.6-2.2-0.6c-1.1,0-1.7,0.3-2.2,0.6c-0.4,0.2-0.7,0.4-1.5,0.4c-0.7,0-1-0.2-1.5-0.4
	C8.8,6.1,8.3,5.9,7.7,5.8V0H0v26.1h26V6.8H25.2z M7.7,7.4c0.3,0.1,0.5,0.2,0.7,0.3c0.5,0.3,1.1,0.6,2.2,0.6c1.1,0,1.7-0.3,2.2-0.6
	c0.4-0.2,0.7-0.4,1.5-0.4c0.7,0,1,0.2,1.5,0.4c0.5,0.3,1.1,0.6,2.2,0.6c1.1,0,1.7-0.3,2.2-0.6c0.4-0.2,0.7-0.4,1.5-0.4
	c0.7,0,1,0.2,1.5,0.4c0.4,0.2,0.8,0.4,1.4,0.5v3.3c-0.3-0.1-0.5-0.2-0.7-0.3c-0.5-0.3-1.1-0.6-2.2-0.6c-1.1,0-1.7,0.3-2.2,0.6
	c-0.4,0.2-0.7,0.4-1.5,0.4c-0.7,0-1-0.2-1.5-0.4c-0.5-0.3-1.1-0.6-2.2-0.6c-1.1,0-1.7,0.3-2.2,0.6c-0.4,0.2-0.7,0.4-1.5,0.4
	c-0.7,0-1-0.2-1.5-0.4c-0.4-0.2-0.8-0.4-1.4-0.5V7.4z M8.4,12.6c0.5,0.3,1.1,0.6,2.2,0.6c1.1,0,1.7-0.3,2.2-0.6
	c0.4-0.2,0.7-0.4,1.5-0.4c0.7,0,1,0.2,1.5,0.4c0.5,0.3,1.1,0.6,2.2,0.6c1.1,0,1.7-0.3,2.2-0.6c0.4-0.2,0.7-0.4,1.5-0.4
	c0.7,0,1,0.2,1.5,0.4c0.4,0.2,0.8,0.4,1.4,0.5v3.5c-0.3-0.1-0.5-0.2-0.7-0.3c-0.5-0.3-1.1-0.6-2.2-0.6c-1.1,0-1.7,0.3-2.2,0.6
	c-0.4,0.2-0.7,0.4-1.5,0.4c-0.7,0-1-0.2-1.5-0.4c-0.5-0.3-1.1-0.6-2.2-0.6c-1.1,0-1.7,0.3-2.2,0.6c-0.4,0.2-0.7,0.4-1.5,0.4
	c-0.7,0-1-0.2-1.5-0.4c-0.4-0.2-0.8-0.4-1.4-0.5v-3.5C7.9,12.3,8.1,12.5,8.4,12.6L8.4,12.6z M6.1,24.6H1.5v-2.2h1.8v-1.5H1.5V19h2.7
	v-1.5H1.5v-1.9h1.8V14H1.5v-1.9h2.7v-1.5H1.5V8.7h1.8V7.1H1.5V5.2h2.7V3.7H1.5V1.5h4.6V24.6z M7.7,24.6v-7.2
	c0.3,0.1,0.5,0.2,0.7,0.3c0.5,0.3,1.1,0.6,2.2,0.6c1.1,0,1.7-0.3,2.2-0.6c0.4-0.2,0.7-0.4,1.5-0.4c0.7,0,1,0.2,1.5,0.4
	c0.5,0.3,1.1,0.6,2.2,0.6c1.1,0,1.7-0.3,2.2-0.6c0.4-0.2,0.7-0.4,1.5-0.4c0.7,0,1,0.2,1.5,0.4c0.4,0.2,0.8,0.4,1.4,0.5v6.3L7.7,24.6
	L7.7,24.6z"/>
</svg>
