<?xml version="1.0" encoding="utf-8"?>
<!-- Generator: Adobe Illustrator 24.2.0, SVG Export Plug-In . SVG Version: 6.00 Build 0)  -->
<svg version="1.1" id="Слой_1" xmlns="http://www.w3.org/2000/svg" xmlns:xlink="http://www.w3.org/1999/xlink" x="0px" y="0px"
     viewBox="0 0 26 26" style="enable-background:new 0 0 26 26;" xml:space="preserve">
<style type="text/css">
	.st0{fill:#F48020;}
</style>
    <g>
	<g>
		<path class="st0" d="M23.7,20.7c0.5-0.6,0.8-1.3,0.8-2.1c0-1.8-1.5-3.3-3.3-3.3c-1.2,0-2.3,0.7-2.8,1.6L15.3,16
			c0-1-0.7-1.8-1.5-2.1v-3.3h3.3c0.4,0,0.8-0.3,0.8-0.8v-1c0-1.6-0.9-2.9-2.3-3.5c0.5-0.6,0.8-1.3,0.8-2.1C16.3,1.5,14.8,0,13,0
			S9.7,1.5,9.7,3.3c0,0.8,0.3,1.5,0.8,2.1C9.1,6,8.2,7.3,8.2,8.9v1c0,0.4,0.3,0.8,0.8,0.8h3.3v3.3c-0.9,0.3-1.5,1.1-1.5,2.1L7.7,17
			c-0.6-1-1.6-1.6-2.8-1.6c-1.8,0-3.3,1.5-3.3,3.3c0,0.8,0.3,1.5,0.8,2.1C0.9,21.3,0,22.7,0,24.2v1C0,25.7,0.3,26,0.8,26h8.1
			c0.4,0,0.8-0.3,0.8-0.8v-1c0-1.6-0.9-2.9-2.3-3.5c0.5-0.6,0.8-1.3,0.8-2.1c0-0.1,0-0.2,0-0.2l3.1-0.9c0.4,0.6,1.1,0.9,1.8,0.9
			c0.7,0,1.4-0.4,1.8-0.9l3.1,0.9c0,0.1,0,0.1,0,0.2c0,0.8,0.3,1.5,0.8,2.1c-1.3,0.6-2.3,1.9-2.3,3.5v1c0,0.4,0.3,0.8,0.8,0.8h8.1
			c0.4,0,0.8-0.3,0.8-0.8v-1C26,22.7,25.1,21.3,23.7,20.7L23.7,20.7z M13,1.5c1,0,1.8,0.8,1.8,1.8S14,5.1,13,5.1s-1.8-0.8-1.8-1.8
			S12,1.5,13,1.5z M9.7,8.9c0-1.3,1-2.3,2.3-2.3h2c1.3,0,2.3,1,2.3,2.3v0.3H9.7V8.9z M4.8,16.9c1,0,1.8,0.8,1.8,1.8
			c0,1-0.8,1.8-1.8,1.8S3,19.6,3,18.6C3,17.7,3.8,16.9,4.8,16.9z M8.1,24.2v0.3H1.5v-0.3c0-1.3,1-2.3,2.3-2.3h2
			C7.1,21.9,8.1,23,8.1,24.2z M13,16.9c-0.4,0-0.8-0.3-0.8-0.8c0-0.4,0.3-0.8,0.8-0.8s0.8,0.3,0.8,0.8C13.8,16.5,13.4,16.9,13,16.9z
			 M21.2,16.9c1,0,1.8,0.8,1.8,1.8c0,1-0.8,1.8-1.8,1.8s-1.8-0.8-1.8-1.8C19.4,17.7,20.2,16.9,21.2,16.9z M24.5,24.5h-6.6v-0.3
			c0-1.3,1-2.3,2.3-2.3h2c1.3,0,2.3,1,2.3,2.3V24.5z"/>
	</g>
</g>
</svg>
