<?xml version="1.0" encoding="utf-8"?>
<!-- Generator: Adobe Illustrator 24.2.0, SVG Export Plug-In . SVG Version: 6.00 Build 0)  -->
<svg version="1.1" id="Слой_1" xmlns="http://www.w3.org/2000/svg" xmlns:xlink="http://www.w3.org/1999/xlink" x="0px" y="0px"
     viewBox="0 0 26 26" style="enable-background:new 0 0 26 26;" xml:space="preserve">
<style type="text/css">
	.st0{fill:#F48020;}
</style>
    <g>
	<g>
		<g>
			<g>
				<path class="st0" d="M25.1,24.3h-1v-1c0-0.5-0.4-0.8-0.8-0.8c-0.5,0-0.8,0.4-0.8,0.8v1h-6.1v-1c0-0.5-0.4-0.8-0.8-0.8
					s-0.8,0.4-0.8,0.8v1H8.5v-1c0-0.5-0.4-0.8-0.8-0.8c-0.5,0-0.8,0.4-0.8,0.8v1H1.7v-7.1l3.6-3.5c0.3-0.3,0.3-0.8,0-1.2
					c-0.3-0.3-0.8-0.3-1.2,0L1.7,15V1.3c0-0.5-0.4-0.8-0.8-0.8S0,0.9,0,1.3v23.9C0,25.6,0.4,26,0.9,26h24.2c0.5,0,0.8-0.4,0.8-0.8
					C25.9,24.7,25.5,24.3,25.1,24.3z"/>
                <path class="st0" d="M7.5,13.6c0.7,0,1.3-0.3,1.8-0.7l2.3,1.2c0.1,0.1,0.3,0.1,0.4,0.1c0.3,0,0.6-0.2,0.7-0.5
					c0.2-0.4,0.1-0.9-0.4-1.1l-2.3-1.2c0-0.1,0-0.3,0-0.4c0-1.4-1.2-2.6-2.6-2.6S4.9,9.5,4.9,11C4.9,12.4,6.1,13.6,7.5,13.6z
					 M7.5,10c0.5,0,1,0.4,0.9,0.9c0,0.5-0.4,0.9-0.9,0.9S6.6,11.5,6.6,11C6.6,10.5,7,10,7.5,10z"/>
                <path class="st0" d="M15.3,17.7c1.4,0,2.6-1.2,2.6-2.6c0-0.4-0.1-0.7-0.2-1l3.4-3.6c0.3-0.3,0.3-0.9,0-1.2
					c-0.3-0.3-0.9-0.3-1.2,0l-3.3,3.5c-0.4-0.2-0.8-0.3-1.3-0.3c-1.4,0-2.6,1.2-2.6,2.6C12.7,16.5,13.9,17.7,15.3,17.7z M15.3,14.1
					c0.5,0,0.9,0.4,0.9,0.9c0,0.5-0.4,0.9-0.9,0.9c-0.5,0-0.9-0.4-0.9-0.9C14.4,14.5,14.8,14.1,15.3,14.1z"/>
                <path class="st0" d="M25.4,5.8c-0.4-0.6-1-1-1.7-1.1c-0.2,0-0.4-0.1-0.5-0.1c-1.2,0-2.3,0.9-2.6,2.1c-0.3,1.4,0.6,2.8,2,3.1
					c0.2,0,0.4,0.1,0.5,0.1c1.2,0,2.3-0.9,2.6-2.1C25.9,7,25.8,6.3,25.4,5.8z M24.2,7.4C24,7.9,23.5,8.2,23,8.1
					C22.5,8,22.2,7.5,22.3,7c0.1-0.4,0.5-0.8,0.9-0.8c0.1,0,0.1,0,0.2,0c0.2,0.1,0.5,0.2,0.6,0.4C24.2,6.9,24.2,7.1,24.2,7.4z"/>
			</g>
		</g>
	</g>
        <g>
	</g>
        <g>
	</g>
        <g>
	</g>
        <g>
	</g>
        <g>
	</g>
        <g>
	</g>
        <g>
	</g>
        <g>
	</g>
        <g>
	</g>
        <g>
	</g>
        <g>
	</g>
        <g>
	</g>
        <g>
	</g>
        <g>
	</g>
        <g>
	</g>
</g>
</svg>
