<?xml version="1.0" encoding="utf-8"?>
<!-- Generator: Adobe Illustrator 24.2.0, SVG Export Plug-In . SVG Version: 6.00 Build 0)  -->
<svg version="1.1" id="Слой_1" xmlns="http://www.w3.org/2000/svg" xmlns:xlink="http://www.w3.org/1999/xlink" x="0px" y="0px"
	 viewBox="0 0 26 26" style="enable-background:new 0 0 26 26;" xml:space="preserve">
<style type="text/css">
	.st0{fill:#FFFFFF;}
</style>
<g>
	<path class="st0" d="M21.4,7.7v1.5h-4.7c-0.4-0.4-0.9-0.8-1.4-1V4.6h4.6V0H6.1v4.6h4.6v3.7c-0.5,0.3-1,0.6-1.4,1H4.6V7.7H0v10.7
		h4.6v-1.5h4.6v4.6H7.7V26h10.7v-4.6h-1.5v-4.6h4.6v1.5H26V7.7H21.4z M12.2,3h-1.5V1.5h1.5V3z M13.8,1.5h1.5V3h-1.5V1.5z M18.3,3
		h-1.5V1.5h1.5V3z M7.7,1.5h1.5V3H7.7V1.5z M12.2,4.6h1.5v3.2c-0.2,0-0.5-0.1-0.8-0.1s-0.5,0-0.8,0.1V4.6z M12.2,9.3v1.4h1.5V9.3
		c0.8,0.2,1.5,0.6,2.1,1.2l-1.3,0.7l0.8,1.3l1.3-0.7c0.1,0.4,0.2,0.8,0.2,1.2s-0.1,0.8-0.2,1.2l-1.3-0.7l-0.8,1.3l1.3,0.7
		c-0.7,0.8-1.7,1.3-2.8,1.3s-2.2-0.5-2.8-1.3l1.3-0.7l-0.8-1.3l-1.3,0.7c-0.1-0.4-0.2-0.8-0.2-1.2s0.1-0.8,0.2-1.2l1.3,0.7l0.8-1.3
		l-1.3-0.7C10.7,9.9,11.4,9.5,12.2,9.3z M3,16.9H1.5V9.2H3V16.9z M4.6,10.8h3.6c-0.3,0.7-0.5,1.5-0.5,2.3s0.2,1.6,0.5,2.3H4.6V10.8z
		 M16.8,24.5H9.2V23h7.6V24.5z M10.7,21.4v-3.6c0.7,0.3,1.5,0.5,2.3,0.5s1.6-0.2,2.3-0.5v3.6H10.7z M17.8,15.3
		c0.3-0.7,0.5-1.5,0.5-2.3s-0.2-1.6-0.5-2.3h3.6v4.6H17.8z M24.5,16.9H23V9.2h1.5V16.9z"/>
</g>
</svg>
