<?xml version="1.0" encoding="utf-8"?>
<!-- Generator: Adobe Illustrator 24.2.0, SVG Export Plug-In . SVG Version: 6.00 Build 0)  -->
<svg version="1.1" id="Capa_1" xmlns="http://www.w3.org/2000/svg" xmlns:xlink="http://www.w3.org/1999/xlink" x="0px" y="0px"
	 viewBox="0 0 26 26.1" style="enable-background:new 0 0 26 26.1;" xml:space="preserve">
<style type="text/css">
	.st0{fill:#FFFFFF;}
</style>
<path class="st0" d="M7.8,15.8H2.4c-0.4,0-0.7,0.3-0.7,0.7v8.8c0,0.4,0.3,0.7,0.7,0.7h5.4c0.4,0,0.7-0.3,0.7-0.7v-8.8
	C8.5,16.1,8.2,15.8,7.8,15.8z M7.1,24.6H3.1v-7.3h3.9V24.6z M16,11.9h-5.4c-0.4,0-0.7,0.3-0.7,0.7v12.7c0,0.4,0.3,0.7,0.7,0.7H16
	c0.4,0,0.7-0.3,0.7-0.7V12.6C16.7,12.2,16.4,11.9,16,11.9z M15.2,24.6h-3.9V13.4h3.9V24.6z M24.2,8h-5.4c-0.4,0-0.7,0.3-0.7,0.7
	v16.6c0,0.4,0.3,0.7,0.7,0.7h5.4c0.4,0,0.7-0.3,0.7-0.7V8.7C24.9,8.3,24.6,8,24.2,8z M23.4,24.6h-3.9V9.4h3.9V24.6z M4.1,10.7
	c0.3,0.3,0.2,0.8-0.1,1c0,0,0,0,0,0l-1.7,1.5c-0.3,0.3-0.7,0.3-1,0c-0.3-0.3-0.3-0.7,0-1c0,0,0.1-0.1,0.1-0.1L3,10.6
	C3.3,10.3,3.8,10.3,4.1,10.7C4.1,10.6,4.1,10.6,4.1,10.7z M22,0h-3.7c-0.4,0-0.7,0.3-0.7,0.7c0,0.4,0.3,0.7,0.7,0.7h1.6l-8.6,7.2
	L8.9,6.2c-0.3-0.3-0.7-0.3-1,0l-3,2.8c-0.3,0.3-0.3,0.8,0,1c0.3,0.2,0.7,0.3,0.9,0l2.5-2.3l2.4,2.4c0.3,0.3,0.7,0.3,1,0l9.4-8v1.9
	c0,0.4,0.3,0.7,0.7,0.7c0.4,0,0.7-0.3,0.7-0.7V0.7C22.7,0.4,22.4,0,22,0L22,0z"/>
</svg>
